<svg width="117" height="118" viewBox="0 0 117 118" fill="none" xmlns="http://www.w3.org/2000/svg">
<path d="M50.1179 9.82778L49.3152 10.0056L48.5412 6.51259L44.0827 7.50049L44.8566 10.9935L44.0647 11.169L42.3822 3.57541L43.1741 3.39994L43.9216 6.77367L48.3801 5.78577L47.6326 2.41204L48.4354 2.23417L50.1179 9.82778ZM56.1186 9.35488C55.3858 9.38312 54.7167 9.23841 54.1115 8.92075C53.5059 8.59569 53.0213 8.13994 52.6577 7.55351C52.3012 6.95939 52.1086 6.28854 52.0798 5.54094C52.051 4.79335 52.1915 4.11336 52.5015 3.50096C52.8186 2.88088 53.2667 2.38918 53.8457 2.02587C54.4244 1.65516 55.0802 1.45568 55.813 1.42743C56.5458 1.39918 57.215 1.54759 57.8205 1.87266C58.4332 2.19004 58.9178 2.64578 59.2743 3.2399C59.6379 3.82633 59.8341 4.49334 59.8629 5.24094C59.8917 5.98853 59.7476 6.67237 59.4305 7.29245C59.1205 7.90484 58.6724 8.39654 58.0863 8.76754C57.5073 9.13085 56.8514 9.32663 56.1186 9.35488ZM56.0899 8.61098C56.6746 8.58844 57.1949 8.43125 57.6507 8.13941C58.1136 7.83987 58.4688 7.44071 58.7164 6.94191C58.9641 6.44311 59.0761 5.88654 59.0524 5.27218C59.0287 4.65782 58.8742 4.11151 58.5889 3.63326C58.3036 3.155 57.9188 2.78807 57.4345 2.53246C56.9574 2.26916 56.4264 2.14878 55.8417 2.17132C55.2643 2.19358 54.7479 2.35433 54.2924 2.65357C53.8367 2.94542 53.485 3.34074 53.2373 3.83954C52.9897 4.33834 52.8777 4.89491 52.9014 5.50927C52.9251 6.12363 53.0796 6.66994 53.3649 7.14819C53.6502 7.62645 54.0314 7.99722 54.5086 8.26052C54.9854 8.51642 55.5125 8.63324 56.0899 8.61098ZM68.7459 6.215L68.3278 9.15206C67.9372 9.42567 67.4953 9.6134 67.0019 9.71526C66.5085 9.81712 66.0052 9.83151 65.4919 9.75843C64.7585 9.65404 64.1225 9.39142 63.5838 8.97056C63.0452 8.54971 62.6495 8.01826 62.3967 7.37623C62.1449 6.72687 62.0723 6.02818 62.1788 5.28016C62.2853 4.53215 62.5495 3.88514 62.9714 3.33915C63.3943 2.78583 63.9231 2.38225 64.5578 2.12843C65.1999 1.87565 65.8876 1.80145 66.6209 1.90584C67.1856 1.98623 67.689 2.15516 68.1312 2.41264C68.5734 2.67012 68.9298 3.00517 69.2002 3.41777L68.6206 3.86275C68.1269 3.17894 67.4363 2.77387 66.549 2.64756C65.955 2.563 65.4035 2.62665 64.8945 2.83851C64.3854 3.05037 63.9608 3.37899 63.6206 3.82438C63.2877 4.27081 63.0784 4.79469 62.9928 5.39604C62.9072 5.99738 62.962 6.55885 63.1571 7.08044C63.3595 7.60308 63.6756 8.03714 64.1052 8.38262C64.5349 8.7281 65.0468 8.94312 65.6408 9.02768C66.4035 9.13625 67.0686 9.01021 67.6362 8.64957L67.9979 6.10852L68.7459 6.215ZM72.024 8.80317L70.5587 10.518L69.7538 10.2625L75.316 3.8679L76.0785 4.10996L76.9552 12.5485L76.1292 12.2863L75.9212 10.0403L72.024 8.80317ZM75.4423 4.82893L72.4799 8.24844L75.8688 9.32424L75.4423 4.82893ZM84.0589 16.1109L83.4678 15.8026L82.1944 8.03287L79.2809 13.6187L78.5716 13.2487L82.1686 6.35264L82.7498 6.65582L84.0231 14.4255L86.9367 8.8397L87.6558 9.21482L84.0589 16.1109ZM93.6678 18.1808L91.8581 20.5316C91.3834 20.5775 90.9063 20.5233 90.4267 20.3692C89.9471 20.215 89.5019 19.9797 89.091 19.6634C88.5041 19.2116 88.0797 18.6699 87.818 18.0384C87.5563 17.4069 87.4735 16.7495 87.5695 16.0663C87.67 15.3771 87.9507 14.7332 88.4116 14.1345C88.8725 13.5358 89.4209 13.1026 90.0569 12.835C90.6974 12.5616 91.3564 12.4706 92.0338 12.5621C92.7171 12.6581 93.3523 12.932 93.9392 13.3838C94.3912 13.7318 94.7462 14.1266 95.0044 14.5684C95.2626 15.0102 95.4078 15.4773 95.4402 15.9696L94.7166 16.0716C94.6234 15.2333 94.2217 14.5408 93.5115 13.9941C93.0361 13.6281 92.5247 13.412 91.9773 13.3459C91.43 13.2797 90.8986 13.3568 90.3832 13.577C89.8736 13.8017 89.4336 14.1547 89.0631 14.636C88.6926 15.1173 88.4639 15.633 88.3769 16.1831C88.2959 16.7377 88.3573 17.2711 88.5613 17.7833C88.7652 18.2955 89.1049 18.7346 89.5804 19.1006C90.1908 19.5706 90.8318 19.7883 91.5034 19.7537L93.0691 17.7199L93.6678 18.1808ZM94.7124 24.5926C94.3352 24.1949 94.0405 23.7495 93.8283 23.2566C93.6265 22.764 93.5365 22.3084 93.558 21.8898L94.2317 21.6797C94.216 22.0723 94.2941 22.4883 94.4658 22.9277C94.648 23.3674 94.9022 23.7593 95.2284 24.1033C95.6769 24.5763 96.1047 24.8444 96.5117 24.9076C96.9292 24.9711 97.2831 24.8652 97.5733 24.5899C97.7991 24.3759 97.918 24.1406 97.93 23.8842C97.9474 23.6227 97.8993 23.362 97.7857 23.1023C97.6775 22.8374 97.5084 22.4976 97.2783 22.0828C97.0087 21.5831 96.8075 21.1665 96.6749 20.8328C96.5527 20.4995 96.5122 20.15 96.5534 19.7843C96.5996 19.424 96.7974 19.0782 97.1468 18.7469C97.4317 18.4767 97.7612 18.3021 98.1353 18.2229C98.5094 18.1438 98.9039 18.1831 99.3189 18.3408C99.739 18.5039 100.155 18.8031 100.568 19.2385C100.864 19.5502 101.106 19.8973 101.295 20.2795C101.484 20.6618 101.603 21.0396 101.65 21.4129L100.983 21.6624C100.93 21.2942 100.822 20.9429 100.658 20.6084C100.494 20.274 100.294 19.9831 100.06 19.7359C99.6217 19.2736 99.1936 19.016 98.7758 18.963C98.3685 18.9103 98.0171 19.0241 97.7215 19.3044C97.4957 19.5185 97.3741 19.7563 97.3567 20.0178C97.3393 20.2793 97.3847 20.5425 97.4929 20.8074C97.6117 21.0725 97.786 21.4125 98.016 21.8273C98.286 22.3165 98.4821 22.7278 98.6042 23.0611C98.7368 23.3947 98.78 23.7417 98.7338 24.102C98.6926 24.4677 98.5028 24.8111 98.1641 25.1322C97.8793 25.4024 97.5472 25.5743 97.168 25.6481C96.7993 25.7221 96.4023 25.6749 95.9771 25.5064C95.5519 25.338 95.1304 25.0334 94.7124 24.5926ZM103.047 35.9697L102.624 35.2647L105.691 33.4231L103.34 29.5079L100.273 31.3495L99.8555 30.6541L106.524 26.6506L106.941 27.346L103.979 29.1247L106.329 33.0399L109.292 31.2612L109.715 31.9662L103.047 35.9697ZM105.379 41.516C105.123 40.8288 105.051 40.1481 105.164 39.4739C105.283 38.797 105.564 38.1942 106.008 37.6655C106.461 37.1411 107.037 36.7483 107.739 36.4872C108.44 36.226 109.13 36.1469 109.808 36.2498C110.496 36.3571 111.103 36.629 111.63 37.0653C112.163 37.4991 112.557 38.0596 112.813 38.7468C113.069 39.434 113.137 40.1161 113.018 40.7929C112.908 41.4741 112.627 42.0769 112.174 42.6013C111.731 43.13 111.158 43.525 110.457 43.7861C109.756 44.0473 109.062 44.1242 108.374 44.0169C107.695 43.914 107.088 43.6422 106.552 43.2014C106.026 42.765 105.635 42.2033 105.379 41.516ZM106.076 41.2562C106.281 41.8046 106.593 42.2496 107.012 42.5912C107.442 42.9372 107.932 43.1498 108.483 43.2291C109.034 43.3083 109.598 43.2406 110.174 43.026C110.75 42.8114 111.221 42.4939 111.586 42.0733C111.951 41.6528 112.179 41.1725 112.271 40.6326C112.372 40.097 112.32 39.5551 112.116 39.0067C111.914 38.4653 111.6 38.025 111.173 37.6859C110.753 37.3443 110.268 37.1339 109.717 37.0546C109.165 36.9754 108.602 37.0431 108.026 37.2577C107.449 37.4723 106.979 37.7899 106.614 38.2104C106.249 38.6309 106.016 39.109 105.915 39.6446C105.821 40.1775 105.875 40.7148 106.076 41.2562ZM112.31 52.5282L109.389 53.0494C109.007 52.764 108.691 52.4028 108.44 51.9661C108.189 51.5293 108.018 51.0557 107.926 50.5452C107.796 49.816 107.847 49.1298 108.078 48.4866C108.31 47.8433 108.691 47.3013 109.221 46.8604C109.759 46.4183 110.4 46.1308 111.144 45.9981C111.888 45.8653 112.585 45.9139 113.236 46.144C113.894 46.3727 114.442 46.7488 114.882 47.2723C115.323 47.8031 115.608 48.4331 115.738 49.1623C115.839 49.7238 115.835 50.2549 115.729 50.7554C115.623 51.2559 115.416 51.6992 115.109 52.0851L114.505 51.6737C115 50.9909 115.169 50.2083 115.011 49.326C114.906 48.7353 114.673 48.2313 114.313 47.8141C113.952 47.3968 113.507 47.0963 112.978 46.9123C112.45 46.7357 111.887 46.7008 111.289 46.8075C110.691 46.9142 110.175 47.1418 109.74 47.4902C109.307 47.8459 108.993 48.2818 108.8 48.798C108.606 49.3141 108.562 49.8675 108.667 50.4582C108.802 51.2166 109.13 51.809 109.65 52.2353L112.177 51.7844L112.31 52.5282ZM110.875 56.4521L108.789 55.595L108.78 54.7506L116.591 58.0398L116.599 58.8398L108.855 62.3057L108.847 61.4391L110.916 60.5407L110.875 56.4521ZM115.717 58.4596L111.544 56.7121L111.58 60.2675L115.717 58.4596ZM107.725 70.1728L107.83 69.5145L114.795 65.8432L108.574 64.8512L108.7 64.0611L116.381 65.2859L116.277 65.9333L109.312 69.6045L115.534 70.5966L115.406 71.3976L107.725 70.1728ZM108.764 79.9508L105.967 78.9641C105.775 78.5274 105.678 78.0571 105.675 77.5534C105.672 77.0496 105.756 76.5533 105.929 76.0643C106.175 75.3657 106.558 74.7937 107.076 74.3481C107.595 73.9026 108.193 73.619 108.873 73.4972C109.559 73.3779 110.258 73.4438 110.971 73.6951C111.683 73.9464 112.266 74.3325 112.718 74.8534C113.178 75.3768 113.47 75.9746 113.594 76.6468C113.716 77.3259 113.653 78.0148 113.407 78.7134C113.217 79.2513 112.953 79.7117 112.613 80.0948C112.274 80.4778 111.876 80.7614 111.418 80.9456L111.095 80.2899C111.863 79.94 112.396 79.3425 112.694 78.4972C112.893 77.9314 112.939 77.3781 112.831 76.8374C112.724 76.2967 112.485 75.8158 112.115 75.3947C111.743 74.9806 111.27 74.6726 110.697 74.4706C110.124 74.2685 109.563 74.212 109.013 74.3008C108.461 74.3967 107.973 74.6214 107.55 74.9748C107.127 75.3283 106.816 75.788 106.616 76.3538C106.36 77.0803 106.353 77.7572 106.595 78.3846L109.016 79.2383L108.764 79.9508ZM102.999 82.9429C103.259 82.4604 103.59 82.0414 103.992 81.6859C104.397 81.3405 104.802 81.1127 105.206 81.0026L105.616 81.577C105.238 81.6846 104.867 81.8886 104.503 82.1889C104.143 82.4993 103.85 82.8631 103.625 83.2804C103.315 83.8541 103.194 84.3442 103.261 84.7506C103.331 85.1671 103.542 85.4702 103.894 85.6601C104.168 85.8077 104.429 85.8472 104.676 85.7786C104.93 85.7136 105.163 85.5865 105.374 85.3975C105.592 85.212 105.862 84.9452 106.184 84.5973C106.575 84.1851 106.908 83.8639 107.183 83.6338C107.462 83.4137 107.781 83.2662 108.141 83.1911C108.498 83.1226 108.888 83.2026 109.312 83.4311C109.658 83.6174 109.927 83.8759 110.119 84.2067C110.311 84.5374 110.396 84.9245 110.376 85.368C110.352 85.818 110.198 86.307 109.913 86.8352C109.709 87.2133 109.455 87.5518 109.151 87.8507C108.847 88.1495 108.525 88.3798 108.185 88.5417L107.74 87.9861C108.073 87.8207 108.373 87.6079 108.64 87.3477C108.906 87.0874 109.12 86.8074 109.282 86.5074C109.584 85.9467 109.695 85.4596 109.615 85.0462C109.538 84.6428 109.321 84.3444 108.962 84.1511C108.688 84.0034 108.424 83.9621 108.17 84.0272C107.916 84.0923 107.681 84.2176 107.463 84.4031C107.248 84.5986 106.979 84.8704 106.657 85.2184C106.277 85.6275 105.947 85.9422 105.668 86.1622C105.393 86.3924 105.077 86.5417 104.72 86.6102C104.36 86.6853 103.974 86.6121 103.563 86.3906C103.218 86.2043 102.951 85.9425 102.762 85.6052C102.577 85.278 102.498 84.8862 102.525 84.4296C102.553 83.9731 102.71 83.4775 102.999 82.9429ZM94.7969 94.4126L95.3351 93.791L98.04 96.1328L101.029 92.6802L98.3241 90.3384L98.855 89.7252L104.735 94.8159L104.204 95.4292L101.592 93.1674L98.6028 96.62L101.215 98.8818L100.677 99.5034L94.7969 94.4126ZM90.263 98.3679C90.8345 97.9084 91.458 97.6258 92.1333 97.5201C92.8133 97.4202 93.4741 97.4973 94.1156 97.7515C94.7559 98.0161 95.3105 98.4399 95.7792 99.023C96.2479 99.6061 96.5403 100.236 96.6565 100.912C96.7714 101.599 96.7047 102.261 96.4564 102.898C96.2126 103.541 95.805 104.092 95.2334 104.551C94.6618 105.011 94.0361 105.29 93.3561 105.39C92.6749 105.501 92.0142 105.423 91.3738 105.159C90.7324 104.905 90.1772 104.486 89.7085 103.903C89.2398 103.32 88.9479 102.685 88.8329 101.998C88.7168 101.321 88.7835 100.66 89.033 100.012C89.2814 99.3755 89.6914 98.8273 90.263 98.3679ZM90.7294 98.9481C90.2733 99.3147 89.9492 99.751 89.7572 100.257C89.5641 100.773 89.5167 101.306 89.6152 101.854C89.7137 102.402 89.9555 102.916 90.3407 103.395C90.7259 103.874 91.1756 104.221 91.6897 104.434C92.2038 104.648 92.7315 104.714 93.2727 104.63C93.8128 104.557 94.3109 104.338 94.767 103.971C95.2173 103.609 95.5361 103.172 95.7235 102.66C95.9155 102.154 95.9623 101.627 95.8638 101.079C95.7654 100.531 95.5235 100.017 95.1383 99.5381C94.7531 99.059 94.3035 98.7124 93.7893 98.4984C93.2752 98.2844 92.7481 98.214 92.208 98.2869C91.6726 98.3657 91.1797 98.5861 90.7294 98.9481ZM81.9971 108.415L80.5818 105.808C80.7323 105.356 80.9752 104.941 81.3106 104.566C81.646 104.19 82.0415 103.878 82.4972 103.631C83.1482 103.277 83.8154 103.109 84.4988 103.126C85.1821 103.142 85.8167 103.333 86.4024 103.698C86.9916 104.069 87.4665 104.587 87.8269 105.251C88.1874 105.915 88.361 106.592 88.3478 107.282C88.3381 107.978 88.1541 108.617 87.7958 109.2C87.4311 109.785 86.9232 110.255 86.2722 110.608C85.7709 110.88 85.266 111.045 84.7575 111.102C84.2489 111.159 83.7631 111.102 83.3 110.932L83.5 110.229C84.3041 110.484 85.1 110.397 85.8877 109.97C86.4151 109.684 86.8199 109.304 87.1023 108.83C87.3846 108.357 87.5296 107.84 87.5373 107.279C87.5384 106.722 87.3941 106.177 87.1043 105.643C86.8145 105.109 86.4358 104.691 85.9682 104.389C85.4941 104.09 84.9816 103.93 84.4307 103.909C83.8797 103.887 83.3406 104.02 82.8133 104.306C82.1362 104.674 81.6774 105.171 81.4367 105.799L82.6611 108.055L81.9971 108.415ZM77.8191 108.291L77.9761 106.041L78.775 105.767L78.1106 114.216L77.3537 114.475L71.6272 108.216L72.4471 107.935L73.9508 109.616L77.8191 108.291ZM77.4372 113.519L77.7828 109.008L74.4192 110.16L77.4372 113.519ZM63.7971 109.576L64.4557 109.472L70.0995 114.962L69.1206 108.739L69.9108 108.614L71.1194 116.298L70.4718 116.4L64.828 110.91L65.807 117.133L65.0057 117.259L63.7971 109.576ZM54.8475 113.64L54.8985 110.674C55.2522 110.354 55.6676 110.113 56.1445 109.951C56.6214 109.789 57.1191 109.712 57.6376 109.721C58.3782 109.734 59.0418 109.915 59.6285 110.266C60.2151 110.617 60.6736 111.096 61.004 111.701C61.3342 112.315 61.4928 112.999 61.4798 113.754C61.4668 114.51 61.2848 115.185 60.9338 115.779C60.5826 116.38 60.1079 116.846 59.5095 117.176C58.9037 117.507 58.2305 117.666 57.4899 117.653C56.9196 117.643 56.3991 117.538 55.9284 117.337C55.4577 117.136 55.0626 116.848 54.7431 116.472L55.2632 115.959C55.8378 116.576 56.5732 116.893 57.4694 116.908C58.0693 116.918 58.6087 116.787 59.0875 116.514C59.5664 116.24 59.947 115.862 60.2295 115.377C60.5045 114.893 60.6473 114.347 60.6577 113.74C60.6682 113.133 60.5443 112.582 60.2861 112.089C60.0205 111.596 59.6531 111.204 59.1839 110.914C58.7148 110.625 58.1802 110.475 57.5803 110.464C56.8101 110.451 56.1657 110.659 55.6471 111.087L55.6029 113.653L54.8475 113.64ZM50.1861 109.111C50.7259 109.206 51.2278 109.389 51.6916 109.659C52.1469 109.935 52.4905 110.247 52.7222 110.596L52.3058 111.166C52.0848 110.841 51.7745 110.553 51.375 110.302C50.9669 110.057 50.5295 109.894 50.0626 109.811C49.4206 109.698 48.9173 109.737 48.5526 109.929C48.1793 110.126 47.9579 110.422 47.8884 110.816C47.8344 111.122 47.8788 111.382 48.0217 111.595C48.1634 111.816 48.3571 111.997 48.603 112.138C48.8476 112.286 49.1858 112.459 49.6175 112.655C50.1315 112.896 50.5411 113.111 50.8462 113.301C51.1428 113.496 51.3833 113.753 51.5678 114.071C51.7451 114.388 51.7919 114.784 51.7083 115.258C51.6401 115.645 51.4792 115.981 51.2256 116.267C50.9721 116.553 50.6316 116.757 50.2042 116.877C49.7696 116.996 49.2568 117.003 48.6659 116.899C48.2428 116.824 47.8416 116.69 47.4622 116.495C47.0829 116.3 46.763 116.067 46.5025 115.795L46.8899 115.198C47.1517 115.462 47.448 115.68 47.7789 115.851C48.1097 116.022 48.4429 116.137 48.7785 116.197C49.4058 116.307 49.9031 116.26 50.2704 116.054C50.6291 115.854 50.8439 115.553 50.9146 115.152C50.9687 114.845 50.9249 114.582 50.7833 114.361C50.6416 114.141 50.4485 113.956 50.2039 113.808C49.9507 113.665 49.6083 113.496 49.1766 113.299C48.6685 113.067 48.2662 112.853 47.9697 112.658C47.6646 112.469 47.4234 112.216 47.2462 111.898C47.0616 111.58 47.0099 111.191 47.0909 110.732C47.1591 110.345 47.3237 110.009 47.5845 109.724C47.8368 109.445 48.1839 109.247 48.6259 109.129C49.0679 109.012 49.5879 109.006 50.1861 109.111ZM36.7216 104.923L37.4804 105.24L36.1019 108.542L40.3161 110.301L41.6945 107L42.443 107.312L39.4464 114.489L38.6979 114.177L40.0292 110.988L35.8151 109.229L34.4838 112.417L33.725 112.101L36.7216 104.923ZM31.5489 101.849C32.1636 102.249 32.6264 102.754 32.9373 103.362C33.2442 103.977 33.3768 104.629 33.3352 105.318C33.2834 106.009 33.0535 106.668 32.6455 107.295C32.2375 107.922 31.7302 108.396 31.1236 108.717C30.5068 109.041 29.8571 109.184 29.1745 109.146C28.488 109.115 27.8373 108.899 27.2226 108.499C26.6079 108.099 26.1471 107.592 25.8403 106.977C25.5232 106.364 25.3905 105.712 25.4423 105.021C25.4839 104.333 25.7087 103.675 26.1167 103.048C26.5247 102.42 27.0371 101.945 27.654 101.622C28.2606 101.301 28.9103 101.158 29.603 101.193C30.2856 101.231 30.9342 101.449 31.5489 101.849ZM31.1429 102.473C30.6524 102.154 30.1368 101.982 29.5962 101.958C29.0453 101.935 28.5248 102.056 28.0347 102.32C27.5446 102.585 27.1319 102.974 26.7966 103.49C26.4613 104.005 26.2721 104.54 26.2291 105.096C26.186 105.651 26.2884 106.173 26.5363 106.661C26.774 107.151 27.1381 107.556 27.6286 107.875C28.1129 108.19 28.6274 108.357 29.1721 108.376C29.7127 108.4 30.2281 108.281 30.7182 108.016C31.2083 107.752 31.621 107.362 31.9563 106.847C32.2916 106.331 32.4808 105.796 32.5238 105.241C32.5669 104.686 32.4696 104.163 32.232 103.672C31.9902 103.188 31.6272 102.788 31.1429 102.473ZM19.4227 97.1394L21.4556 94.9787C21.9325 94.9799 22.4019 95.0809 22.8639 95.2816C23.326 95.4824 23.7458 95.7604 24.1235 96.1157C24.663 96.6233 25.0318 97.2042 25.2299 97.8584C25.428 98.5127 25.4456 99.175 25.2826 99.8455C25.1146 100.521 24.7717 101.134 24.254 101.685C23.7363 102.235 23.1478 102.612 22.4884 102.815C21.8241 103.024 21.1593 103.05 20.4942 102.892C19.8238 102.729 19.2188 102.394 18.6793 101.886C18.2638 101.495 17.9495 101.067 17.7362 100.602C17.5228 100.137 17.4244 99.6581 17.4408 99.165L18.1709 99.1348C18.1809 99.9782 18.5123 100.707 19.1651 101.321C19.6021 101.732 20.0897 101.998 20.6278 102.118C21.166 102.237 21.7024 102.213 22.237 102.045C22.7662 101.872 23.2389 101.564 23.6551 101.121C24.0714 100.679 24.3498 100.188 24.4906 99.6496C24.626 99.1057 24.6175 98.5688 24.4651 98.039C24.3127 97.5091 24.018 97.0386 23.581 96.6275C23.0199 96.0996 22.4035 95.8197 21.7318 95.7878L19.973 97.6572L19.4227 97.1394ZM18.2329 93.1318L20.4192 92.577L20.929 93.2502L12.6962 95.2624L12.2132 94.6247L16.3672 87.2272L16.8905 87.9181L15.7641 89.8723L18.2329 93.1318ZM13.1477 94.4047L17.5404 93.3217L15.3937 90.4874L13.1477 94.4047ZM12.6008 80.2289L12.9075 80.8208L9.48634 87.912L15.08 85.0136L15.4481 85.7239L8.54229 89.3021L8.2407 88.7201L11.6619 81.6289L6.06818 84.5273L5.69502 83.8071L12.6008 80.2289ZM5.94029 72.9985L8.77448 72.1218C9.18873 72.3581 9.54727 72.6775 9.85013 73.0801C10.153 73.4826 10.381 73.9316 10.5342 74.427C10.7531 75.1346 10.7874 75.8219 10.6369 76.4887C10.4865 77.1555 10.1751 77.7403 9.70255 78.2432C9.22296 78.7482 8.62225 79.1123 7.90044 79.3356C7.17862 79.5588 6.48077 79.5964 5.80687 79.4481C5.1259 79.3021 4.5351 78.9964 4.03446 78.5309C3.53164 78.0584 3.17078 77.4683 2.9519 76.7606C2.78335 76.2157 2.72103 75.6884 2.76494 75.1786C2.80884 74.6688 2.95955 74.2034 3.21707 73.7826L3.867 74.1166C3.45964 74.8551 3.38839 75.6525 3.65325 76.5088C3.83054 77.082 4.12369 77.5535 4.53269 77.9232C4.94169 78.2929 5.42022 78.5365 5.96826 78.6539C6.51412 78.7641 7.07719 78.7296 7.65747 78.5501C8.23775 78.3706 8.72202 78.0812 9.11028 77.682C9.49635 77.2757 9.75379 76.8045 9.88262 76.2684C10.0114 75.7323 9.9872 75.1777 9.8099 74.6045C9.58226 73.8685 9.18416 73.321 8.61561 72.9618L6.16356 73.7203L5.94029 72.9985ZM8.7916 67.1575C8.86916 67.7001 8.85192 68.2339 8.73987 68.7587C8.61944 69.2772 8.42934 69.701 8.16957 70.03L7.49858 69.8116C7.73845 69.5004 7.91546 69.116 8.02961 68.6582C8.13538 68.1941 8.15473 67.7274 8.08765 67.2581C7.99541 66.6128 7.80158 66.1467 7.50614 65.8596C7.20232 65.5664 6.85243 65.448 6.45645 65.5046C6.14847 65.5486 5.9154 65.6717 5.75723 65.8739C5.59173 66.0772 5.48018 66.3176 5.42259 66.5952C5.35766 66.8739 5.29902 67.2489 5.24668 67.7203C5.17759 68.2839 5.10062 68.7401 5.0158 69.089C4.92259 69.4315 4.75343 69.74 4.50832 70.0145C4.26216 70.2817 3.90077 70.4493 3.42413 70.5174C3.03549 70.573 2.66569 70.5248 2.31475 70.373C1.9638 70.2211 1.6647 69.9608 1.41745 69.5921C1.16915 69.216 1.00255 68.731 0.917649 68.137C0.856858 67.7117 0.859968 67.2885 0.926981 66.8674C0.993993 66.4463 1.11601 66.0696 1.29302 65.7376L1.98128 65.9198C1.8116 66.2508 1.69692 66.6002 1.63724 66.9679C1.57755 67.3356 1.57182 67.6881 1.62003 68.0254C1.71017 68.656 1.91029 69.1138 2.22039 69.3987C2.52211 69.6774 2.87463 69.7878 3.27793 69.7302C3.58592 69.6862 3.82266 69.5625 3.98816 69.3593C4.15366 69.1561 4.26887 68.9151 4.3338 68.6365C4.39035 68.3515 4.44479 67.9733 4.49713 67.5019C4.55994 66.9467 4.63795 66.4978 4.73116 66.1553C4.81599 65.8064 4.98148 65.4984 5.22764 65.2313C5.47275 64.9568 5.82629 64.7865 6.28826 64.7205C6.6769 64.665 7.04722 64.7168 7.39921 64.876C7.74283 65.0289 8.03931 65.2971 8.28866 65.6805C8.53801 66.0638 8.70566 66.5562 8.7916 67.1575ZM8.53653 53.0568L8.47626 53.8768L4.90811 53.6146L4.57339 58.169L8.14154 58.4312L8.08209 59.2401L0.325235 58.67L0.384686 57.8611L3.83095 58.1144L4.16567 53.56L0.719408 53.3067L0.779674 52.4867L8.53653 53.0568ZM9.82476 47.1796C9.63829 47.8888 9.30494 48.4867 8.82472 48.9731C8.33733 49.4577 7.76018 49.7885 7.09326 49.9655C6.42105 50.1334 5.72317 50.1223 4.99962 49.932C4.27606 49.7418 3.66652 49.4092 3.171 48.9342C2.6702 48.4503 2.33037 47.8784 2.15151 47.2186C1.96549 46.557 1.96572 45.8715 2.15219 45.1623C2.33866 44.4531 2.67559 43.8562 3.16298 43.3716C3.64508 42.8779 4.22224 42.5472 4.89444 42.3792C5.56136 42.2023 6.2566 42.2089 6.98016 42.3991C7.70372 42.5894 8.31589 42.9265 8.81669 43.4105C9.31221 43.8854 9.65204 44.4573 9.83618 45.1261C10.015 45.7859 10.0112 46.4704 9.82476 47.1796ZM9.10479 46.9903C9.25359 46.4243 9.25478 45.8809 9.10838 45.3598C8.9567 44.8298 8.67835 44.3736 8.27334 43.9914C7.86833 43.6092 7.36852 43.3399 6.77391 43.1836C6.1793 43.0273 5.61169 43.0159 5.07106 43.1495C4.53043 43.2831 4.06731 43.5443 3.6817 43.9331C3.29081 44.3128 3.02096 44.7857 2.87216 45.3516C2.72525 45.9104 2.72857 46.4512 2.88214 46.9741C3.02854 47.4952 3.30425 47.9468 3.70926 48.329C4.11427 48.7112 4.61408 48.9805 5.20869 49.1368C5.8033 49.2932 6.37091 49.3045 6.91154 49.1709C7.45217 49.0373 7.91793 48.7807 8.30882 48.4009C8.69255 48.0193 8.95787 47.5491 9.10479 46.9903ZM10.4935 34.186L13.1823 35.4395C13.3306 35.8928 13.3818 36.3702 13.3359 36.8719C13.29 37.3735 13.1576 37.8594 12.9385 38.3293C12.6255 39.0007 12.1894 39.5329 11.6302 39.9261C11.071 40.3192 10.4475 40.5434 9.75967 40.5987C9.06518 40.6509 8.37553 40.5174 7.69073 40.1981C7.00593 39.8789 6.46361 39.4381 6.06377 38.8758C5.65722 38.3103 5.42472 37.687 5.36627 37.0059C5.31096 36.3182 5.43979 35.6386 5.75277 34.9672C5.99377 34.4503 6.3017 34.0176 6.67656 33.6693C7.05143 33.321 7.47556 33.0774 7.94895 32.9385L8.20631 33.6224C7.40853 33.8961 6.82029 34.4392 6.44158 35.2515C6.18807 35.7954 6.08872 36.3416 6.14353 36.8902C6.19835 37.4388 6.3894 37.9406 6.71671 38.3956C7.04714 38.8438 7.48762 39.1963 8.03814 39.4529C8.58867 39.7096 9.14182 39.8203 9.6976 39.7852C10.2565 39.7434 10.7637 39.5671 11.2191 39.2563C11.6745 38.9456 12.029 38.5183 12.2825 37.9745C12.608 37.2763 12.6807 36.6032 12.5005 35.9553L10.1742 34.8708L10.4935 34.186ZM13.9295 31.799L15.1392 33.7027L14.6589 34.3972L10.1765 27.2045L10.6315 26.5465L18.9562 28.1828L18.4633 28.8956L16.2551 28.4358L13.9295 31.799ZM11.1323 27.3656L13.5328 31.2004L15.5551 28.276L11.1323 27.3656ZM24.4275 22.4171L23.9611 22.8934L16.1559 21.86L20.6574 26.2676L20.0977 26.8392L14.5403 21.3977L14.9989 20.9293L22.8041 21.9628L18.3026 17.5552L18.8701 16.9756L24.4275 22.4171ZM29.2032 13.8237L30.9257 16.2391C30.8315 16.7066 30.6409 17.1473 30.3538 17.5613C30.0667 17.9752 29.7121 18.3328 29.29 18.6338C28.6869 19.0639 28.0452 19.3123 27.3648 19.3789C26.6845 19.4455 26.0315 19.3335 25.4057 19.0429C24.7756 18.7462 24.2412 18.2902 23.8025 17.6751C23.3638 17.0599 23.109 16.4092 23.0381 15.7228C22.9628 15.0304 23.0675 14.3735 23.3522 13.752C23.6428 13.1262 24.0897 12.5983 24.6928 12.1682C25.1572 11.837 25.6383 11.6122 26.1361 11.4938C26.6339 11.3753 27.123 11.3723 27.6034 11.4846L27.4905 12.2065C26.6614 12.0517 25.8819 12.2346 25.1522 12.755C24.6637 13.1033 24.3081 13.5297 24.0856 14.0341C23.863 14.5386 23.7821 15.0694 23.8428 15.6266C23.9096 16.1794 24.1193 16.7031 24.4719 17.1977C24.8246 17.6922 25.2514 18.0611 25.7524 18.3043C26.2594 18.5432 26.7876 18.6396 27.337 18.5936C27.8864 18.5475 28.4054 18.3503 28.8939 18.0019C29.5211 17.5546 29.9159 17.0047 30.0783 16.3521L28.5881 14.2624L29.2032 13.8237ZM35.6305 14.6659C35.1423 14.9153 34.6318 15.072 34.099 15.1362C33.5694 15.1904 33.1069 15.148 32.7115 15.0089L32.7005 14.3034C33.0726 14.4294 33.4937 14.4722 33.9638 14.4317C34.4371 14.3813 34.8848 14.2483 35.307 14.0326C35.8876 13.7362 36.2657 13.4016 36.4414 13.0291C36.6203 12.6466 36.6188 12.2772 36.4369 11.921C36.2954 11.6439 36.1033 11.4634 35.8608 11.3793C35.6149 11.2887 35.3513 11.2611 35.07 11.2966C34.7853 11.3256 34.4115 11.3917 33.9486 11.4951C33.3931 11.6124 32.9365 11.6876 32.579 11.7204C32.2248 11.7433 31.8781 11.6834 31.5389 11.5405C31.2064 11.3943 30.9306 11.1068 30.7116 10.678C30.5331 10.3283 30.4587 9.96291 30.4886 9.58168C30.5185 9.20045 30.6677 8.83311 30.9363 8.47965C31.2116 8.12282 31.6163 7.80796 32.1507 7.53505C32.5333 7.33963 32.9347 7.20535 33.3548 7.13218C33.7749 7.05902 34.1707 7.05232 34.5422 7.11209L34.593 7.82225C34.2248 7.76908 33.8572 7.77389 33.49 7.83666C33.1228 7.89943 32.7875 8.00831 32.484 8.16329C31.9167 8.45304 31.5485 8.79079 31.3796 9.17652C31.2138 9.55228 31.2236 9.92158 31.4089 10.2844C31.5504 10.5615 31.7442 10.7453 31.9901 10.836C32.236 10.9266 32.5013 10.9575 32.7859 10.9286C33.0738 10.8897 33.4492 10.8185 33.9121 10.7152C34.4577 10.5946 34.9076 10.5228 35.2619 10.4999C35.6194 10.467 35.9644 10.5237 36.297 10.67C36.6361 10.8128 36.9118 11.092 37.1241 11.5076C37.3026 11.8573 37.3737 12.2244 37.3372 12.609C37.304 12.9836 37.1465 13.351 36.8646 13.7112C36.5828 14.0714 36.1714 14.3897 35.6305 14.6659Z" fill="#8BBAB7"/>
</svg>
