<svg width="36" height="36" viewBox="0 0 36 36" fill="none" xmlns="http://www.w3.org/2000/svg">
<g opacity="0.6" clip-path="url(#clip0_1915_5508)">
<path d="M9.76454 27.2695C9.76454 27.2695 6.7889 29.7318 2.60089 25.6422C-1.58711 21.5525 1.17618 17.8482 2.17597 17.3702C3.17576 16.8923 3.43211 16.9647 6.85 18.4629C10.2679 19.961 12.6177 25.121 9.76454 27.2695Z" fill="#292929"/>
<path d="M10.3976 17.9743C10.3976 17.9743 6.62903 18.3004 4.81111 14.0932C2.9932 9.88604 5.18889 6.24648 6.18785 4.87843C7.1868 3.51038 9.02049 3.44386 10.2866 4.96327C11.5528 6.48268 14.6078 9.43942 13.8731 14.3641C13.8731 14.3641 13.7385 17.3545 10.3976 17.9743Z" fill="#292929"/>
<path d="M22.517 33.0371C22.517 33.0371 18.4732 37.64 12.7651 34.6659C12.7651 34.6659 9.00625 32.0566 11.0665 27.7718C13.1267 23.4871 13.0787 22.6178 13.5146 20.3107C13.9505 18.0037 15.2965 16.3713 17.0053 15.6178C18.7141 14.8643 21.4623 14.5058 25.4753 17.5225C25.4753 17.5225 26.4675 18.4206 29.2325 18.9452C31.9976 19.4698 35.8971 22.3138 33.5995 27.0743C31.3019 31.8347 26.7146 31.149 26.7146 31.149C26.7146 31.149 23.9306 31.0039 22.517 33.0371Z" fill="#292929"/>
<path d="M30.7435 18.0194C30.7435 18.0194 34.5683 17.4829 34.3733 11.6326C34.1782 5.78225 29.5795 5.32422 28.5523 5.74005C27.5252 6.15589 27.4058 6.39404 26.2075 9.9277C25.0092 13.4614 27.2329 18.6769 30.7435 18.0194Z" fill="#292929"/>
<path d="M23.4525 12.2176C23.4525 12.2176 26.2348 9.65499 24.3545 5.47531C22.4742 1.29564 18.3062 0.462198 16.6223 0.277123C14.9385 0.0920471 13.6527 1.40107 13.9206 3.36066C14.1886 5.32024 14.3113 9.57 18.4429 12.3488C18.4429 12.3488 20.7416 14.2663 23.4525 12.2176Z" fill="#292929"/>
</g>
<defs>
<clipPath id="clip0_1915_5508">
<rect width="36" height="36" fill="white"/>
</clipPath>
</defs>
</svg>
