<svg width="50" height="50" viewBox="0 0 50 50" fill="none" xmlns="http://www.w3.org/2000/svg">
<circle cx="25" cy="25" r="24.4792" transform="matrix(-1 0 0 1 50 0)" stroke="#959595" stroke-width="1.04167"/>
<path d="M23.4701 21.3853C23.6081 21.2372 23.6832 21.0413 23.6796 20.8389C23.676 20.6365 23.594 20.4434 23.4509 20.3002C23.3078 20.1571 23.1147 20.0751 22.9123 20.0715C22.7099 20.068 22.514 20.1431 22.3659 20.2811L18.1992 24.4478C18.0529 24.5942 17.9707 24.7928 17.9707 24.9998C17.9707 25.2069 18.0529 25.4054 18.1992 25.5519L22.3659 29.7186C22.4374 29.7953 22.5237 29.8569 22.6195 29.8996C22.7153 29.9423 22.8188 29.9653 22.9237 29.9671C23.0286 29.969 23.1328 29.9497 23.2301 29.9104C23.3273 29.8711 23.4157 29.8126 23.4899 29.7384C23.5641 29.6642 23.6226 29.5759 23.6618 29.4786C23.7011 29.3813 23.7204 29.2771 23.7186 29.1722C23.7167 29.0673 23.6938 28.9639 23.6511 28.868C23.6084 28.7722 23.5468 28.6859 23.4701 28.6144L20.6367 25.7811H30.7305C30.9377 25.7811 31.1364 25.6988 31.2829 25.5523C31.4294 25.4058 31.5117 25.207 31.5117 24.9998C31.5117 24.7926 31.4294 24.5939 31.2829 24.4474C31.1364 24.3009 30.9377 24.2186 30.7305 24.2186H20.6367L23.4701 21.3853Z" fill="#959595"/>
</svg>
