<svg width="50" height="50" viewBox="0 0 50 50" fill="none" xmlns="http://www.w3.org/2000/svg">
<circle cx="25" cy="25" r="24.4792" stroke="#959595" stroke-width="1.04167"/>
<path d="M26.5299 21.3853C26.3919 21.2372 26.3168 21.0413 26.3204 20.8389C26.324 20.6365 26.406 20.4434 26.5491 20.3002C26.6922 20.1571 26.8853 20.0751 27.0877 20.0715C27.2901 20.068 27.486 20.1431 27.6341 20.2811L31.8008 24.4478C31.9471 24.5942 32.0293 24.7928 32.0293 24.9998C32.0293 25.2069 31.9471 25.4054 31.8008 25.5519L27.6341 29.7186C27.5626 29.7953 27.4763 29.8569 27.3805 29.8996C27.2847 29.9423 27.1812 29.9653 27.0763 29.9671C26.9714 29.969 26.8672 29.9497 26.7699 29.9104C26.6727 29.8711 26.5843 29.8126 26.5101 29.7384C26.4359 29.6642 26.3774 29.5759 26.3382 29.4786C26.2989 29.3813 26.2796 29.2771 26.2814 29.1722C26.2833 29.0673 26.3062 28.9639 26.3489 28.868C26.3916 28.7722 26.4532 28.6859 26.5299 28.6144L29.3633 25.7811H19.2695C19.0623 25.7811 18.8636 25.6988 18.7171 25.5523C18.5706 25.4058 18.4883 25.207 18.4883 24.9998C18.4883 24.7926 18.5706 24.5939 18.7171 24.4474C18.8636 24.3009 19.0623 24.2186 19.2695 24.2186H29.3633L26.5299 21.3853Z" fill="#959595"/>
</svg>
