<svg width="36" height="37" viewBox="0 0 36 37" fill="none" xmlns="http://www.w3.org/2000/svg">
<g filter="url(#filter0_dd_4003_14234)">
<rect x="-0.5" y="0.5" width="31" height="31" rx="15.5" transform="matrix(-1 0 0 1 33 2)" stroke="#FEFEFE" shape-rendering="crispEdges"/>
<path d="M16.4686 13.8851C16.6066 13.737 16.6817 13.5412 16.6781 13.3388C16.6746 13.1364 16.5926 12.9433 16.4494 12.8001C16.3063 12.657 16.1132 12.575 15.9108 12.5714C15.7084 12.5678 15.5125 12.643 15.3644 12.781L11.1978 16.9476C11.0515 17.0941 10.9693 17.2927 10.9693 17.4997C10.9693 17.7067 11.0515 17.9053 11.1978 18.0518L15.3644 22.2185C15.4359 22.2952 15.5222 22.3568 15.618 22.3995C15.7139 22.4422 15.8173 22.4651 15.9222 22.467C16.0271 22.4689 16.1313 22.4496 16.2286 22.4103C16.3259 22.371 16.4142 22.3125 16.4884 22.2383C16.5626 22.1641 16.6211 22.0757 16.6604 21.9785C16.6997 21.8812 16.719 21.777 16.7171 21.6721C16.7153 21.5672 16.6923 21.4637 16.6496 21.3679C16.6069 21.2721 16.5453 21.1858 16.4686 21.1143L13.6353 18.281H23.729C23.9362 18.281 24.1349 18.1987 24.2814 18.0521C24.4279 17.9056 24.5103 17.7069 24.5103 17.4997C24.5103 17.2925 24.4279 17.0938 24.2814 16.9473C24.1349 16.8008 23.9362 16.7185 23.729 16.7185H13.6353L16.4686 13.8851Z" fill="#FEFEFE"/>
</g>
<defs>
<filter id="filter0_dd_4003_14234" x="0" y="0" width="36" height="37" filterUnits="userSpaceOnUse" color-interpolation-filters="sRGB">
<feFlood flood-opacity="0" result="BackgroundImageFix"/>
<feColorMatrix in="SourceAlpha" type="matrix" values="0 0 0 0 0 0 0 0 0 0 0 0 0 0 0 0 0 0 127 0" result="hardAlpha"/>
<feOffset/>
<feGaussianBlur stdDeviation="1"/>
<feComposite in2="hardAlpha" operator="out"/>
<feColorMatrix type="matrix" values="0 0 0 0 0 0 0 0 0 0 0 0 0 0 0 0 0 0 0.05 0"/>
<feBlend mode="normal" in2="BackgroundImageFix" result="effect1_dropShadow_4003_14234"/>
<feColorMatrix in="SourceAlpha" type="matrix" values="0 0 0 0 0 0 0 0 0 0 0 0 0 0 0 0 0 0 127 0" result="hardAlpha"/>
<feOffset dy="1"/>
<feGaussianBlur stdDeviation="1"/>
<feComposite in2="hardAlpha" operator="out"/>
<feColorMatrix type="matrix" values="0 0 0 0 0 0 0 0 0 0 0 0 0 0 0 0 0 0 0.05 0"/>
<feBlend mode="normal" in2="effect1_dropShadow_4003_14234" result="effect2_dropShadow_4003_14234"/>
<feBlend mode="normal" in="SourceGraphic" in2="effect2_dropShadow_4003_14234" result="shape"/>
</filter>
</defs>
</svg>
