<svg width="50" height="50" viewBox="0 0 50 50" fill="none" xmlns="http://www.w3.org/2000/svg">
<circle cx="25" cy="25" r="24.4792" transform="matrix(-1 0 0 1 50 0)" stroke="#B7E2DF" stroke-width="1.04167"/>
<path d="M23.4701 21.3854C23.6081 21.2373 23.6832 21.0415 23.6796 20.8391C23.676 20.6367 23.594 20.4436 23.4509 20.3004C23.3078 20.1573 23.1147 20.0753 22.9123 20.0717C22.7099 20.0681 22.514 20.1433 22.3659 20.2813L18.1992 24.4479C18.0529 24.5944 17.9707 24.793 17.9707 25C17.9707 25.2071 18.0529 25.4056 18.1992 25.5521L22.3659 29.7188C22.4374 29.7955 22.5237 29.8571 22.6195 29.8998C22.7153 29.9425 22.8188 29.9655 22.9237 29.9673C23.0286 29.9692 23.1328 29.9499 23.2301 29.9106C23.3273 29.8713 23.4157 29.8128 23.4899 29.7386C23.5641 29.6644 23.6226 29.576 23.6618 29.4788C23.7011 29.3815 23.7204 29.2773 23.7186 29.1724C23.7167 29.0675 23.6938 28.964 23.6511 28.8682C23.6084 28.7724 23.5468 28.6861 23.4701 28.6146L20.6367 25.7813H30.7305C30.9377 25.7813 31.1364 25.699 31.2829 25.5524C31.4294 25.4059 31.5117 25.2072 31.5117 25C31.5117 24.7928 31.4294 24.5941 31.2829 24.4476C31.1364 24.3011 30.9377 24.2188 30.7305 24.2188H20.6367L23.4701 21.3854Z" fill="#B7E2DF"/>
</svg>
