<svg width="50" height="50" viewBox="0 0 50 50" fill="none" xmlns="http://www.w3.org/2000/svg">
<g clip-path="url(#clip0_4003_14208)">
<circle cx="25" cy="25" r="24.4792" stroke="#FEFEFE" stroke-width="1.04167"/>
<path d="M26.5299 21.3856C26.3919 21.2375 26.3168 21.0416 26.3204 20.8392C26.324 20.6368 26.406 20.4437 26.5491 20.3006C26.6922 20.1575 26.8853 20.0755 27.0877 20.0719C27.2901 20.0683 27.486 20.1435 27.6341 20.2815L31.8008 24.4481C31.9471 24.5946 32.0293 24.7932 32.0293 25.0002C32.0293 25.2072 31.9471 25.4058 31.8008 25.5523L27.6341 29.719C27.5626 29.7957 27.4763 29.8573 27.3805 29.9C27.2847 29.9427 27.1812 29.9656 27.0763 29.9675C26.9714 29.9693 26.8672 29.95 26.7699 29.9108C26.6727 29.8715 26.5843 29.813 26.5101 29.7388C26.4359 29.6646 26.3774 29.5762 26.3382 29.479C26.2989 29.3817 26.2796 29.2775 26.2814 29.1726C26.2833 29.0677 26.3062 28.9642 26.3489 28.8684C26.3916 28.7726 26.4532 28.6863 26.5299 28.6148L29.3633 25.7815H19.2695C19.0623 25.7815 18.8636 25.6991 18.7171 25.5526C18.5706 25.4061 18.4883 25.2074 18.4883 25.0002C18.4883 24.793 18.5706 24.5943 18.7171 24.4478C18.8636 24.3013 19.0623 24.219 19.2695 24.219H29.3633L26.5299 21.3856Z" fill="#FEFEFE"/>
</g>
<defs>
<clipPath id="clip0_4003_14208">
<rect width="50" height="50" fill="white"/>
</clipPath>
</defs>
</svg>
