<svg width="50" height="50" viewBox="0 0 50 50" fill="none" xmlns="http://www.w3.org/2000/svg">
<circle cx="25" cy="25" r="24.4792" stroke="#B7E2DF" stroke-width="1.04167"/>
<path d="M26.5299 21.3854C26.3919 21.2373 26.3168 21.0415 26.3204 20.8391C26.324 20.6367 26.406 20.4436 26.5491 20.3004C26.6922 20.1573 26.8853 20.0753 27.0877 20.0717C27.2901 20.0681 27.486 20.1433 27.6341 20.2813L31.8008 24.4479C31.9471 24.5944 32.0293 24.793 32.0293 25C32.0293 25.2071 31.9471 25.4056 31.8008 25.5521L27.6341 29.7188C27.5626 29.7955 27.4763 29.8571 27.3805 29.8998C27.2847 29.9425 27.1812 29.9655 27.0763 29.9673C26.9714 29.9692 26.8672 29.9499 26.7699 29.9106C26.6727 29.8713 26.5843 29.8128 26.5101 29.7386C26.4359 29.6644 26.3774 29.576 26.3382 29.4788C26.2989 29.3815 26.2796 29.2773 26.2814 29.1724C26.2833 29.0675 26.3062 28.964 26.3489 28.8682C26.3916 28.7724 26.4532 28.6861 26.5299 28.6146L29.3633 25.7813H19.2695C19.0623 25.7813 18.8636 25.699 18.7171 25.5524C18.5706 25.4059 18.4883 25.2072 18.4883 25C18.4883 24.7928 18.5706 24.5941 18.7171 24.4476C18.8636 24.3011 19.0623 24.2188 19.2695 24.2188H29.3633L26.5299 21.3854Z" fill="#B7E2DF"/>
</svg>
