<svg width="50" height="50" viewBox="0 0 50 50" fill="none" xmlns="http://www.w3.org/2000/svg">
<g clip-path="url(#clip0_4003_14213)">
<circle cx="25" cy="25" r="24.4792" transform="matrix(-1 0 0 1 50 0)" stroke="#FEFEFE" stroke-width="1.04167"/>
<path d="M23.4701 21.3856C23.6081 21.2375 23.6832 21.0416 23.6796 20.8392C23.676 20.6368 23.594 20.4437 23.4509 20.3006C23.3078 20.1575 23.1147 20.0755 22.9123 20.0719C22.7099 20.0683 22.514 20.1435 22.3659 20.2815L18.1992 24.4481C18.0529 24.5946 17.9707 24.7932 17.9707 25.0002C17.9707 25.2072 18.0529 25.4058 18.1992 25.5523L22.3659 29.719C22.4374 29.7957 22.5237 29.8573 22.6195 29.9C22.7153 29.9427 22.8188 29.9656 22.9237 29.9675C23.0286 29.9693 23.1328 29.95 23.2301 29.9108C23.3273 29.8715 23.4157 29.813 23.4899 29.7388C23.5641 29.6646 23.6226 29.5762 23.6618 29.479C23.7011 29.3817 23.7204 29.2775 23.7186 29.1726C23.7167 29.0677 23.6938 28.9642 23.6511 28.8684C23.6084 28.7726 23.5468 28.6863 23.4701 28.6148L20.6367 25.7815H30.7305C30.9377 25.7815 31.1364 25.6991 31.2829 25.5526C31.4294 25.4061 31.5117 25.2074 31.5117 25.0002C31.5117 24.793 31.4294 24.5943 31.2829 24.4478C31.1364 24.3013 30.9377 24.219 30.7305 24.219H20.6367L23.4701 21.3856Z" fill="#FEFEFE"/>
</g>
<defs>
<clipPath id="clip0_4003_14213">
<rect width="50" height="50" fill="white" transform="matrix(-1 0 0 1 50 0)"/>
</clipPath>
</defs>
</svg>
