<svg width="36" height="34" viewBox="0 0 36 34" fill="none" xmlns="http://www.w3.org/2000/svg">
<g clip-path="url(#clip0_3605_32912)">
<path d="M29.4636 22.4284C29.4636 22.4284 33.1798 23.4637 35.3617 18.1203C37.5437 12.7769 33.5207 10.5393 32.4131 10.5059C31.3054 10.4725 31.1001 10.6395 28.5772 13.3446C26.0543 16.0497 25.9861 21.6269 29.4636 22.4284Z" fill="#4A9F99"/>
<path d="M25.1299 14.3133C25.1299 14.3133 28.7096 13.111 28.6755 8.60255C28.6414 4.09405 25.164 1.68951 23.698 0.854605C22.232 0.0196972 20.5273 0.687623 19.9818 2.55782C19.4363 4.42801 17.8339 8.30198 20.4932 12.4431C20.4932 12.4431 21.8228 15.0814 25.1299 14.3133Z" fill="#4A9F99"/>
<path d="M20.1235 32.6812C20.1235 32.6812 25.6806 35.2193 29.7036 30.2767C29.7036 30.2767 32.0901 26.4361 28.4763 23.3971C24.8624 20.358 24.5556 19.5565 23.2259 17.6529C21.8963 15.7493 20.006 14.8142 18.1385 14.8142C16.2709 14.8142 13.6117 15.5823 11.157 19.8904C11.157 19.8904 10.6115 21.0927 8.29317 22.6623C5.97484 24.232 3.55424 28.3397 7.57722 31.7127C11.6002 35.0858 15.5209 32.6478 15.5209 32.6478C15.5209 32.6478 18.0097 31.4122 20.1235 32.6812Z" fill="#4A9F99"/>
<path d="M6.53124 22.4284C6.53124 22.4284 2.81509 23.4637 0.633138 18.1203C-1.54882 12.7769 2.47416 10.5393 3.58181 10.5059C4.68946 10.4725 4.89477 10.6395 7.4169 13.3446C9.93903 16.0497 10.0087 21.6269 6.53124 22.4284Z" fill="#4A9F99"/>
<path d="M10.866 14.3133C10.866 14.3133 7.28619 13.111 7.32029 8.60255C7.35438 4.09405 10.8319 1.68951 12.2979 0.854605C13.7639 0.0196972 15.4685 0.687623 16.014 2.55782C16.5595 4.42801 18.1619 8.30198 15.5026 12.4431C15.5026 12.4431 14.173 15.0814 10.866 14.3133Z" fill="#4A9F99"/>
</g>
<defs>
<clipPath id="clip0_3605_32912">
<rect width="36" height="33" fill="white" transform="matrix(-1 0 0 1 36 0.5)"/>
</clipPath>
</defs>
</svg>
