<svg width="21" height="21" viewBox="0 0 21 21" fill="none" xmlns="http://www.w3.org/2000/svg">
<path d="M14.8351 8.7841C15.4423 8.17693 16.301 8.7841 17.0036 8.7841C17.5787 8.7841 18.1302 8.55564 18.5369 8.14897C18.9436 7.7423 19.172 7.19074 19.172 6.61562C19.172 6.04051 18.9436 5.48895 18.5369 5.08228C18.1302 4.67561 17.5787 4.44714 17.0036 4.44714C16.8885 4.44714 16.7782 4.40145 16.6969 4.32012C16.6156 4.23878 16.5699 4.12847 16.5699 4.01345C16.5699 3.43833 16.3414 2.88677 15.9347 2.4801C15.5281 2.07343 14.9765 1.84497 14.4014 1.84497C13.8263 1.84497 13.2747 2.07343 12.868 2.4801C12.4614 2.88677 12.2329 3.43833 12.2329 4.01345C12.2329 4.71604 12.8401 5.57475 12.2329 6.18193L6.16118 12.2537C5.554 12.8608 4.69528 12.2537 3.9927 12.2537C3.41758 12.2537 2.86602 12.4821 2.45935 12.8888C2.05268 13.2955 1.82422 13.847 1.82422 14.4221C1.82422 14.9973 2.05268 15.5488 2.45935 15.9555C2.86602 16.3622 3.41758 16.5906 3.9927 16.5906C4.23557 16.5906 4.42639 16.7814 4.42639 17.0243C4.42639 17.5994 4.65486 18.151 5.06153 18.5577C5.46819 18.9643 6.01975 19.1928 6.59487 19.1928C7.16999 19.1928 7.72155 18.9643 8.12822 18.5577C8.53488 18.151 8.76335 17.5994 8.76335 17.0243C8.76335 16.3217 8.15618 15.463 8.76335 14.8558L14.8351 8.7841Z" fill="#F8F8F8"/>
</svg>
